<svg width="800" height="800" viewBox="0 0 800 800" xmlns="http://www.w3.org/2000/svg">
<rect x="0" y="0" width="800" height="800" opacity="1" fill="#FFFFFF" stroke="none"/>
<text x="240" y="736" dy="0.5ex" text-anchor="middle" font-family="Arial" font-size="22.258064516129032" opacity="1" fill="#000000">
y₃
</text>
<text x="40" y="400" dy="0.5ex" text-anchor="middle" font-family="Arial" font-size="22.258064516129032" opacity="1" fill="#000000">
y₂
</text>
<text x="640" y="736" dy="0.5ex" text-anchor="middle" font-family="Arial" font-size="22.258064516129032" opacity="1" fill="#000000">
y₁
</text>
<polyline fill="none" opacity="0.2" stroke="#000000" stroke-width="1" points="120,635 120,163 451,112 452,585 120,635 "/>
<polyline fill="none" opacity="0.2" stroke="#000000" stroke-width="1" points="120,635 452,585 "/>
<polyline fill="none" opacity="0.2" stroke="#000000" stroke-width="1" points="120,519 452,468 "/>
<polyline fill="none" opacity="0.2" stroke="#000000" stroke-width="1" points="120,402 452,352 "/>
<polyline fill="none" opacity="0.2" stroke="#000000" stroke-width="1" points="120,285 451,234 "/>
<polyline fill="none" opacity="0.2" stroke="#000000" stroke-width="1" points="120,168 451,118 "/>
<polyline fill="none" opacity="0.2" stroke="#000000" stroke-width="1" points="120,635 120,163 "/>
<polyline fill="none" opacity="0.2" stroke="#000000" stroke-width="1" points="268,612 268,140 "/>
<polyline fill="none" opacity="0.2" stroke="#000000" stroke-width="1" points="423,589 423,116 "/>
<polyline fill="none" opacity="0.2" stroke="#000000" stroke-width="1" points="452,686 784,635 452,585 120,635 452,686 "/>
<polyline fill="none" opacity="0.2" stroke="#000000" stroke-width="1" points="452,686 784,635 "/>
<polyline fill="none" opacity="0.2" stroke="#000000" stroke-width="1" points="349,670 687,620 "/>
<polyline fill="none" opacity="0.2" stroke="#000000" stroke-width="1" points="247,655 585,605 "/>
<polyline fill="none" opacity="0.2" stroke="#000000" stroke-width="1" points="144,640 482,589 "/>
<polyline fill="none" opacity="0.2" stroke="#000000" stroke-width="1" points="452,686 120,635 "/>
<polyline fill="none" opacity="0.2" stroke="#000000" stroke-width="1" points="606,663 268,612 "/>
<polyline fill="none" opacity="0.2" stroke="#000000" stroke-width="1" points="761,640 423,589 "/>
<polyline fill="none" opacity="0.2" stroke="#000000" stroke-width="1" points="784,635 452,585 451,112 784,163 784,635 "/>
<polyline fill="none" opacity="0.2" stroke="#000000" stroke-width="1" points="784,635 784,163 "/>
<polyline fill="none" opacity="0.2" stroke="#000000" stroke-width="1" points="687,620 687,147 "/>
<polyline fill="none" opacity="0.2" stroke="#000000" stroke-width="1" points="585,605 585,132 "/>
<polyline fill="none" opacity="0.2" stroke="#000000" stroke-width="1" points="482,589 482,117 "/>
<polyline fill="none" opacity="0.2" stroke="#000000" stroke-width="1" points="784,635 452,585 "/>
<polyline fill="none" opacity="0.2" stroke="#000000" stroke-width="1" points="784,519 452,468 "/>
<polyline fill="none" opacity="0.2" stroke="#000000" stroke-width="1" points="784,402 452,352 "/>
<polyline fill="none" opacity="0.2" stroke="#000000" stroke-width="1" points="784,285 451,234 "/>
<polyline fill="none" opacity="0.2" stroke="#000000" stroke-width="1" points="784,168 451,118 "/>
<polyline fill="none" opacity="0.8" stroke="#000000" stroke-width="1" points="452,686 120,635 "/>
<polyline fill="none" opacity="0.8" stroke="#000000" stroke-width="1" points="452,686 452,691 "/>
<text x="452" y="696" dy="0.76em" text-anchor="middle" font-family="Times New Roman" font-size="19.35483870967742" opacity="1" fill="#000000">
0
</text>
<polyline fill="none" opacity="0.8" stroke="#000000" stroke-width="1" points="349,670 349,675 "/>
<text x="349" y="680" dy="0.76em" text-anchor="middle" font-family="Times New Roman" font-size="19.35483870967742" opacity="1" fill="#000000">
0.2
</text>
<polyline fill="none" opacity="0.8" stroke="#000000" stroke-width="1" points="247,655 247,660 "/>
<text x="247" y="665" dy="0.76em" text-anchor="middle" font-family="Times New Roman" font-size="19.35483870967742" opacity="1" fill="#000000">
0.4
</text>
<polyline fill="none" opacity="0.8" stroke="#000000" stroke-width="1" points="144,640 144,645 "/>
<text x="144" y="650" dy="0.76em" text-anchor="middle" font-family="Times New Roman" font-size="19.35483870967742" opacity="1" fill="#000000">
0.6
</text>
<polyline fill="none" opacity="0.8" stroke="#000000" stroke-width="1" points="120,635 120,163 "/>
<polyline fill="none" opacity="0.8" stroke="#000000" stroke-width="1" points="120,635 115,635 "/>
<text x="110" y="635" dy="0.5ex" text-anchor="end" font-family="Times New Roman" font-size="19.35483870967742" opacity="1" fill="#000000">
0
</text>
<polyline fill="none" opacity="0.8" stroke="#000000" stroke-width="1" points="120,519 115,519 "/>
<text x="110" y="519" dy="0.5ex" text-anchor="end" font-family="Times New Roman" font-size="19.35483870967742" opacity="1" fill="#000000">
0.5
</text>
<polyline fill="none" opacity="0.8" stroke="#000000" stroke-width="1" points="120,402 115,402 "/>
<text x="110" y="402" dy="0.5ex" text-anchor="end" font-family="Times New Roman" font-size="19.35483870967742" opacity="1" fill="#000000">
1
</text>
<polyline fill="none" opacity="0.8" stroke="#000000" stroke-width="1" points="120,285 115,285 "/>
<text x="110" y="285" dy="0.5ex" text-anchor="end" font-family="Times New Roman" font-size="19.35483870967742" opacity="1" fill="#000000">
1.5
</text>
<polyline fill="none" opacity="0.8" stroke="#000000" stroke-width="1" points="120,168 115,168 "/>
<text x="110" y="168" dy="0.5ex" text-anchor="end" font-family="Times New Roman" font-size="19.35483870967742" opacity="1" fill="#000000">
2
</text>
<polyline fill="none" opacity="0.8" stroke="#000000" stroke-width="1" points="452,686 784,635 "/>
<polyline fill="none" opacity="0.8" stroke="#000000" stroke-width="1" points="452,686 452,691 "/>
<text x="452" y="696" dy="0.76em" text-anchor="middle" font-family="Times New Roman" font-size="19.35483870967742" opacity="1" fill="#000000">
0
</text>
<polyline fill="none" opacity="0.8" stroke="#000000" stroke-width="1" points="606,663 606,668 "/>
<text x="606" y="673" dy="0.76em" text-anchor="middle" font-family="Times New Roman" font-size="19.35483870967742" opacity="1" fill="#000000">
0.05
</text>
<polyline fill="none" opacity="0.8" stroke="#000000" stroke-width="1" points="761,640 761,645 "/>
<text x="761" y="650" dy="0.76em" text-anchor="middle" font-family="Times New Roman" font-size="19.35483870967742" opacity="1" fill="#000000">
0.1
</text>
<circle cx="509" cy="541" r="3" opacity="1" fill="none" stroke="#FF0000" stroke-width="1"/>
<circle cx="492" cy="392" r="3" opacity="1" fill="none" stroke="#FF0000" stroke-width="1"/>
<circle cx="421" cy="539" r="3" opacity="1" fill="none" stroke="#FF0000" stroke-width="1"/>
<circle cx="432" cy="192" r="3" opacity="1" fill="none" stroke="#FF0000" stroke-width="1"/>
<circle cx="345" cy="364" r="3" opacity="1" fill="none" stroke="#FF0000" stroke-width="1"/>
<circle cx="325" cy="466" r="3" opacity="1" fill="none" stroke="#FF0000" stroke-width="1"/>
<circle cx="739" cy="452" r="3" opacity="1" fill="none" stroke="#FF0000" stroke-width="1"/>
<circle cx="329" cy="367" r="3" opacity="1" fill="none" stroke="#FF0000" stroke-width="1"/>
<circle cx="440" cy="489" r="3" opacity="1" fill="none" stroke="#FF0000" stroke-width="1"/>
<circle cx="306" cy="360" r="3" opacity="1" fill="none" stroke="#FF0000" stroke-width="1"/>
<circle cx="257" cy="337" r="3" opacity="1" fill="none" stroke="#FF0000" stroke-width="1"/>
<circle cx="683" cy="432" r="3" opacity="1" fill="none" stroke="#FF0000" stroke-width="1"/>
<circle cx="333" cy="341" r="3" opacity="1" fill="none" stroke="#FF0000" stroke-width="1"/>
<circle cx="143" cy="380" r="3" opacity="1" fill="none" stroke="#FF0000" stroke-width="1"/>
<circle cx="380" cy="458" r="3" opacity="1" fill="none" stroke="#FF0000" stroke-width="1"/>
<circle cx="339" cy="359" r="3" opacity="1" fill="none" stroke="#FF0000" stroke-width="1"/>
</svg>
