<svg width="800" height="800" viewBox="0 0 800 800" xmlns="http://www.w3.org/2000/svg">
<rect x="0" y="0" width="800" height="800" opacity="1" fill="#FFFFFF" stroke="none"/>
<text x="240" y="736" dy="0.5ex" text-anchor="middle" font-family="Arial" font-size="22.258064516129032" opacity="1" fill="#000000">
y₃
</text>
<text x="40" y="400" dy="0.5ex" text-anchor="middle" font-family="Arial" font-size="22.258064516129032" opacity="1" fill="#000000">
y₂
</text>
<text x="640" y="736" dy="0.5ex" text-anchor="middle" font-family="Arial" font-size="22.258064516129032" opacity="1" fill="#000000">
y₁
</text>
<polyline fill="none" opacity="0.2" stroke="#000000" stroke-width="1" points="120,635 120,163 451,112 452,585 120,635 "/>
<polyline fill="none" opacity="0.2" stroke="#000000" stroke-width="1" points="120,635 452,585 "/>
<polyline fill="none" opacity="0.2" stroke="#000000" stroke-width="1" points="120,564 452,514 "/>
<polyline fill="none" opacity="0.2" stroke="#000000" stroke-width="1" points="120,493 452,442 "/>
<polyline fill="none" opacity="0.2" stroke="#000000" stroke-width="1" points="120,421 452,370 "/>
<polyline fill="none" opacity="0.2" stroke="#000000" stroke-width="1" points="120,350 452,299 "/>
<polyline fill="none" opacity="0.2" stroke="#000000" stroke-width="1" points="120,277 451,227 "/>
<polyline fill="none" opacity="0.2" stroke="#000000" stroke-width="1" points="120,206 451,156 "/>
<polyline fill="none" opacity="0.2" stroke="#000000" stroke-width="1" points="120,635 120,163 "/>
<polyline fill="none" opacity="0.2" stroke="#000000" stroke-width="1" points="277,611 277,138 "/>
<polyline fill="none" opacity="0.2" stroke="#000000" stroke-width="1" points="441,586 441,114 "/>
<polyline fill="none" opacity="0.2" stroke="#000000" stroke-width="1" points="452,686 784,635 452,585 120,635 452,686 "/>
<polyline fill="none" opacity="0.2" stroke="#000000" stroke-width="1" points="452,686 784,635 "/>
<polyline fill="none" opacity="0.2" stroke="#000000" stroke-width="1" points="358,672 696,621 "/>
<polyline fill="none" opacity="0.2" stroke="#000000" stroke-width="1" points="264,658 602,607 "/>
<polyline fill="none" opacity="0.2" stroke="#000000" stroke-width="1" points="170,644 508,593 "/>
<polyline fill="none" opacity="0.2" stroke="#000000" stroke-width="1" points="452,686 120,635 "/>
<polyline fill="none" opacity="0.2" stroke="#000000" stroke-width="1" points="615,661 277,611 "/>
<polyline fill="none" opacity="0.2" stroke="#000000" stroke-width="1" points="779,637 441,586 "/>
<polyline fill="none" opacity="0.2" stroke="#000000" stroke-width="1" points="784,635 452,585 451,112 784,163 784,635 "/>
<polyline fill="none" opacity="0.2" stroke="#000000" stroke-width="1" points="784,635 784,163 "/>
<polyline fill="none" opacity="0.2" stroke="#000000" stroke-width="1" points="696,621 696,149 "/>
<polyline fill="none" opacity="0.2" stroke="#000000" stroke-width="1" points="602,607 602,135 "/>
<polyline fill="none" opacity="0.2" stroke="#000000" stroke-width="1" points="508,593 508,121 "/>
<polyline fill="none" opacity="0.2" stroke="#000000" stroke-width="1" points="784,635 452,585 "/>
<polyline fill="none" opacity="0.2" stroke="#000000" stroke-width="1" points="784,564 452,514 "/>
<polyline fill="none" opacity="0.2" stroke="#000000" stroke-width="1" points="784,493 452,442 "/>
<polyline fill="none" opacity="0.2" stroke="#000000" stroke-width="1" points="784,421 452,370 "/>
<polyline fill="none" opacity="0.2" stroke="#000000" stroke-width="1" points="784,350 452,299 "/>
<polyline fill="none" opacity="0.2" stroke="#000000" stroke-width="1" points="784,277 451,227 "/>
<polyline fill="none" opacity="0.2" stroke="#000000" stroke-width="1" points="784,206 451,156 "/>
<polyline fill="none" opacity="0.8" stroke="#000000" stroke-width="1" points="452,686 120,635 "/>
<polyline fill="none" opacity="0.8" stroke="#000000" stroke-width="1" points="452,686 452,691 "/>
<text x="452" y="696" dy="0.76em" text-anchor="middle" font-family="Times New Roman" font-size="19.35483870967742" opacity="1" fill="#000000">
0
</text>
<polyline fill="none" opacity="0.8" stroke="#000000" stroke-width="1" points="358,672 358,677 "/>
<text x="358" y="682" dy="0.76em" text-anchor="middle" font-family="Times New Roman" font-size="19.35483870967742" opacity="1" fill="#000000">
0.05
</text>
<polyline fill="none" opacity="0.8" stroke="#000000" stroke-width="1" points="264,658 264,663 "/>
<text x="264" y="668" dy="0.76em" text-anchor="middle" font-family="Times New Roman" font-size="19.35483870967742" opacity="1" fill="#000000">
0.1
</text>
<polyline fill="none" opacity="0.8" stroke="#000000" stroke-width="1" points="170,644 170,649 "/>
<text x="170" y="654" dy="0.76em" text-anchor="middle" font-family="Times New Roman" font-size="19.35483870967742" opacity="1" fill="#000000">
0.15
</text>
<polyline fill="none" opacity="0.8" stroke="#000000" stroke-width="1" points="120,635 120,163 "/>
<polyline fill="none" opacity="0.8" stroke="#000000" stroke-width="1" points="120,635 115,635 "/>
<text x="110" y="635" dy="0.5ex" text-anchor="end" font-family="Times New Roman" font-size="19.35483870967742" opacity="1" fill="#000000">
0
</text>
<polyline fill="none" opacity="0.8" stroke="#000000" stroke-width="1" points="120,564 115,564 "/>
<text x="110" y="564" dy="0.5ex" text-anchor="end" font-family="Times New Roman" font-size="19.35483870967742" opacity="1" fill="#000000">
0.2
</text>
<polyline fill="none" opacity="0.8" stroke="#000000" stroke-width="1" points="120,493 115,493 "/>
<text x="110" y="493" dy="0.5ex" text-anchor="end" font-family="Times New Roman" font-size="19.35483870967742" opacity="1" fill="#000000">
0.4
</text>
<polyline fill="none" opacity="0.8" stroke="#000000" stroke-width="1" points="120,421 115,421 "/>
<text x="110" y="421" dy="0.5ex" text-anchor="end" font-family="Times New Roman" font-size="19.35483870967742" opacity="1" fill="#000000">
0.6
</text>
<polyline fill="none" opacity="0.8" stroke="#000000" stroke-width="1" points="120,350 115,350 "/>
<text x="110" y="350" dy="0.5ex" text-anchor="end" font-family="Times New Roman" font-size="19.35483870967742" opacity="1" fill="#000000">
0.8
</text>
<polyline fill="none" opacity="0.8" stroke="#000000" stroke-width="1" points="120,277 115,277 "/>
<text x="110" y="277" dy="0.5ex" text-anchor="end" font-family="Times New Roman" font-size="19.35483870967742" opacity="1" fill="#000000">
1
</text>
<polyline fill="none" opacity="0.8" stroke="#000000" stroke-width="1" points="120,206 115,206 "/>
<text x="110" y="206" dy="0.5ex" text-anchor="end" font-family="Times New Roman" font-size="19.35483870967742" opacity="1" fill="#000000">
1.2
</text>
<polyline fill="none" opacity="0.8" stroke="#000000" stroke-width="1" points="452,686 784,635 "/>
<polyline fill="none" opacity="0.8" stroke="#000000" stroke-width="1" points="452,686 452,691 "/>
<text x="452" y="696" dy="0.76em" text-anchor="middle" font-family="Times New Roman" font-size="19.35483870967742" opacity="1" fill="#000000">
0
</text>
<polyline fill="none" opacity="0.8" stroke="#000000" stroke-width="1" points="615,661 615,666 "/>
<text x="615" y="671" dy="0.76em" text-anchor="middle" font-family="Times New Roman" font-size="19.35483870967742" opacity="1" fill="#000000">
0.05
</text>
<polyline fill="none" opacity="0.8" stroke="#000000" stroke-width="1" points="779,637 779,642 "/>
<text x="779" y="647" dy="0.76em" text-anchor="middle" font-family="Times New Roman" font-size="19.35483870967742" opacity="1" fill="#000000">
0.1
</text>
<circle cx="286" cy="453" r="3" opacity="1" fill="none" stroke="#FF0000" stroke-width="1"/>
<circle cx="245" cy="454" r="3" opacity="1" fill="none" stroke="#FF0000" stroke-width="1"/>
<circle cx="282" cy="459" r="3" opacity="1" fill="none" stroke="#FF0000" stroke-width="1"/>
<circle cx="275" cy="453" r="3" opacity="1" fill="none" stroke="#FF0000" stroke-width="1"/>
<circle cx="191" cy="445" r="3" opacity="1" fill="none" stroke="#FF0000" stroke-width="1"/>
<circle cx="451" cy="453" r="3" opacity="1" fill="none" stroke="#FF0000" stroke-width="1"/>
<circle cx="182" cy="441" r="3" opacity="1" fill="none" stroke="#FF0000" stroke-width="1"/>
<circle cx="255" cy="450" r="3" opacity="1" fill="none" stroke="#FF0000" stroke-width="1"/>
<circle cx="222" cy="447" r="3" opacity="1" fill="none" stroke="#FF0000" stroke-width="1"/>
<circle cx="380" cy="462" r="3" opacity="1" fill="none" stroke="#FF0000" stroke-width="1"/>
<circle cx="182" cy="437" r="3" opacity="1" fill="none" stroke="#FF0000" stroke-width="1"/>
<circle cx="195" cy="440" r="3" opacity="1" fill="none" stroke="#FF0000" stroke-width="1"/>
<circle cx="285" cy="455" r="3" opacity="1" fill="none" stroke="#FF0000" stroke-width="1"/>
<circle cx="259" cy="456" r="3" opacity="1" fill="none" stroke="#FF0000" stroke-width="1"/>
<circle cx="189" cy="445" r="3" opacity="1" fill="none" stroke="#FF0000" stroke-width="1"/>
<circle cx="205" cy="445" r="3" opacity="1" fill="none" stroke="#FF0000" stroke-width="1"/>
<circle cx="266" cy="432" r="3" opacity="1" fill="none" stroke="#FF0000" stroke-width="1"/>
<circle cx="322" cy="462" r="3" opacity="1" fill="none" stroke="#FF0000" stroke-width="1"/>
<circle cx="344" cy="452" r="3" opacity="1" fill="none" stroke="#FF0000" stroke-width="1"/>
<circle cx="224" cy="450" r="3" opacity="1" fill="none" stroke="#FF0000" stroke-width="1"/>
<circle cx="307" cy="460" r="3" opacity="1" fill="none" stroke="#FF0000" stroke-width="1"/>
<circle cx="360" cy="458" r="3" opacity="1" fill="none" stroke="#FF0000" stroke-width="1"/>
<circle cx="239" cy="453" r="3" opacity="1" fill="none" stroke="#FF0000" stroke-width="1"/>
<circle cx="311" cy="457" r="3" opacity="1" fill="none" stroke="#FF0000" stroke-width="1"/>
<circle cx="217" cy="450" r="3" opacity="1" fill="none" stroke="#FF0000" stroke-width="1"/>
<circle cx="256" cy="455" r="3" opacity="1" fill="none" stroke="#FF0000" stroke-width="1"/>
<circle cx="199" cy="436" r="3" opacity="1" fill="none" stroke="#FF0000" stroke-width="1"/>
<circle cx="450" cy="458" r="3" opacity="1" fill="none" stroke="#FF0000" stroke-width="1"/>
<circle cx="291" cy="457" r="3" opacity="1" fill="none" stroke="#FF0000" stroke-width="1"/>
<circle cx="282" cy="457" r="3" opacity="1" fill="none" stroke="#FF0000" stroke-width="1"/>
<circle cx="189" cy="435" r="3" opacity="1" fill="none" stroke="#FF0000" stroke-width="1"/>
<circle cx="609" cy="136" r="3" opacity="1" fill="none" stroke="#FF0000" stroke-width="1"/>
<circle cx="392" cy="467" r="3" opacity="1" fill="none" stroke="#FF0000" stroke-width="1"/>
<circle cx="290" cy="456" r="3" opacity="1" fill="none" stroke="#FF0000" stroke-width="1"/>
<circle cx="261" cy="454" r="3" opacity="1" fill="none" stroke="#FF0000" stroke-width="1"/>
<circle cx="352" cy="445" r="3" opacity="1" fill="none" stroke="#FF0000" stroke-width="1"/>
<circle cx="276" cy="456" r="3" opacity="1" fill="none" stroke="#FF0000" stroke-width="1"/>
<circle cx="246" cy="454" r="3" opacity="1" fill="none" stroke="#FF0000" stroke-width="1"/>
<circle cx="174" cy="439" r="3" opacity="1" fill="none" stroke="#FF0000" stroke-width="1"/>
<circle cx="220" cy="448" r="3" opacity="1" fill="none" stroke="#FF0000" stroke-width="1"/>
<circle cx="242" cy="453" r="3" opacity="1" fill="none" stroke="#FF0000" stroke-width="1"/>
<circle cx="236" cy="452" r="3" opacity="1" fill="none" stroke="#FF0000" stroke-width="1"/>
<circle cx="177" cy="439" r="3" opacity="1" fill="none" stroke="#FF0000" stroke-width="1"/>
<circle cx="381" cy="371" r="3" opacity="1" fill="none" stroke="#FF0000" stroke-width="1"/>
<circle cx="262" cy="456" r="3" opacity="1" fill="none" stroke="#FF0000" stroke-width="1"/>
<circle cx="228" cy="444" r="3" opacity="1" fill="none" stroke="#FF0000" stroke-width="1"/>
<circle cx="190" cy="440" r="3" opacity="1" fill="none" stroke="#FF0000" stroke-width="1"/>
<circle cx="299" cy="460" r="3" opacity="1" fill="none" stroke="#FF0000" stroke-width="1"/>
<circle cx="208" cy="446" r="3" opacity="1" fill="none" stroke="#FF0000" stroke-width="1"/>
<circle cx="293" cy="453" r="3" opacity="1" fill="none" stroke="#FF0000" stroke-width="1"/>
<circle cx="357" cy="452" r="3" opacity="1" fill="none" stroke="#FF0000" stroke-width="1"/>
<circle cx="177" cy="422" r="3" opacity="1" fill="none" stroke="#FF0000" stroke-width="1"/>
<circle cx="173" cy="426" r="3" opacity="1" fill="none" stroke="#FF0000" stroke-width="1"/>
<circle cx="135" cy="388" r="3" opacity="1" fill="none" stroke="#FF0000" stroke-width="1"/>
<circle cx="236" cy="449" r="3" opacity="1" fill="none" stroke="#FF0000" stroke-width="1"/>
<circle cx="161" cy="440" r="3" opacity="1" fill="none" stroke="#FF0000" stroke-width="1"/>
<circle cx="290" cy="455" r="3" opacity="1" fill="none" stroke="#FF0000" stroke-width="1"/>
<circle cx="493" cy="445" r="3" opacity="1" fill="none" stroke="#FF0000" stroke-width="1"/>
<circle cx="199" cy="447" r="3" opacity="1" fill="none" stroke="#FF0000" stroke-width="1"/>
<circle cx="286" cy="458" r="3" opacity="1" fill="none" stroke="#FF0000" stroke-width="1"/>
<circle cx="219" cy="437" r="3" opacity="1" fill="none" stroke="#FF0000" stroke-width="1"/>
<circle cx="258" cy="443" r="3" opacity="1" fill="none" stroke="#FF0000" stroke-width="1"/>
<circle cx="179" cy="438" r="3" opacity="1" fill="none" stroke="#FF0000" stroke-width="1"/>
<circle cx="120" cy="421" r="3" opacity="1" fill="none" stroke="#FF0000" stroke-width="1"/>
<circle cx="207" cy="441" r="3" opacity="1" fill="none" stroke="#FF0000" stroke-width="1"/>
<circle cx="252" cy="456" r="3" opacity="1" fill="none" stroke="#FF0000" stroke-width="1"/>
<circle cx="274" cy="459" r="3" opacity="1" fill="none" stroke="#FF0000" stroke-width="1"/>
<circle cx="216" cy="443" r="3" opacity="1" fill="none" stroke="#FF0000" stroke-width="1"/>
<circle cx="191" cy="443" r="3" opacity="1" fill="none" stroke="#FF0000" stroke-width="1"/>
<circle cx="269" cy="454" r="3" opacity="1" fill="none" stroke="#FF0000" stroke-width="1"/>
<circle cx="367" cy="457" r="3" opacity="1" fill="none" stroke="#FF0000" stroke-width="1"/>
<circle cx="304" cy="442" r="3" opacity="1" fill="none" stroke="#FF0000" stroke-width="1"/>
<circle cx="369" cy="460" r="3" opacity="1" fill="none" stroke="#FF0000" stroke-width="1"/>
<circle cx="393" cy="438" r="3" opacity="1" fill="none" stroke="#FF0000" stroke-width="1"/>
<circle cx="300" cy="459" r="3" opacity="1" fill="none" stroke="#FF0000" stroke-width="1"/>
<circle cx="397" cy="455" r="3" opacity="1" fill="none" stroke="#FF0000" stroke-width="1"/>
<circle cx="256" cy="452" r="3" opacity="1" fill="none" stroke="#FF0000" stroke-width="1"/>
<circle cx="325" cy="460" r="3" opacity="1" fill="none" stroke="#FF0000" stroke-width="1"/>
<circle cx="275" cy="453" r="3" opacity="1" fill="none" stroke="#FF0000" stroke-width="1"/>
<circle cx="269" cy="440" r="3" opacity="1" fill="none" stroke="#FF0000" stroke-width="1"/>
<circle cx="285" cy="456" r="3" opacity="1" fill="none" stroke="#FF0000" stroke-width="1"/>
<circle cx="363" cy="450" r="3" opacity="1" fill="none" stroke="#FF0000" stroke-width="1"/>
<circle cx="239" cy="448" r="3" opacity="1" fill="none" stroke="#FF0000" stroke-width="1"/>
<circle cx="263" cy="454" r="3" opacity="1" fill="none" stroke="#FF0000" stroke-width="1"/>
<circle cx="282" cy="457" r="3" opacity="1" fill="none" stroke="#FF0000" stroke-width="1"/>
<circle cx="309" cy="456" r="3" opacity="1" fill="none" stroke="#FF0000" stroke-width="1"/>
<circle cx="147" cy="431" r="3" opacity="1" fill="none" stroke="#FF0000" stroke-width="1"/>
<circle cx="409" cy="462" r="3" opacity="1" fill="none" stroke="#FF0000" stroke-width="1"/>
<circle cx="205" cy="443" r="3" opacity="1" fill="none" stroke="#FF0000" stroke-width="1"/>
<circle cx="281" cy="459" r="3" opacity="1" fill="none" stroke="#FF0000" stroke-width="1"/>
<circle cx="432" cy="460" r="3" opacity="1" fill="none" stroke="#FF0000" stroke-width="1"/>
<circle cx="388" cy="448" r="3" opacity="1" fill="none" stroke="#FF0000" stroke-width="1"/>
<circle cx="227" cy="443" r="3" opacity="1" fill="none" stroke="#FF0000" stroke-width="1"/>
<circle cx="234" cy="451" r="3" opacity="1" fill="none" stroke="#FF0000" stroke-width="1"/>
<circle cx="316" cy="455" r="3" opacity="1" fill="none" stroke="#FF0000" stroke-width="1"/>
<circle cx="288" cy="453" r="3" opacity="1" fill="none" stroke="#FF0000" stroke-width="1"/>
<circle cx="280" cy="442" r="3" opacity="1" fill="none" stroke="#FF0000" stroke-width="1"/>
<circle cx="280" cy="454" r="3" opacity="1" fill="none" stroke="#FF0000" stroke-width="1"/>
<circle cx="217" cy="436" r="3" opacity="1" fill="none" stroke="#FF0000" stroke-width="1"/>
<circle cx="226" cy="442" r="3" opacity="1" fill="none" stroke="#FF0000" stroke-width="1"/>
<circle cx="262" cy="456" r="3" opacity="1" fill="none" stroke="#FF0000" stroke-width="1"/>
<circle cx="168" cy="436" r="3" opacity="1" fill="none" stroke="#FF0000" stroke-width="1"/>
<circle cx="207" cy="437" r="3" opacity="1" fill="none" stroke="#FF0000" stroke-width="1"/>
<circle cx="443" cy="455" r="3" opacity="1" fill="none" stroke="#FF0000" stroke-width="1"/>
<circle cx="166" cy="433" r="3" opacity="1" fill="none" stroke="#FF0000" stroke-width="1"/>
<circle cx="267" cy="457" r="3" opacity="1" fill="none" stroke="#FF0000" stroke-width="1"/>
<circle cx="241" cy="432" r="3" opacity="1" fill="none" stroke="#FF0000" stroke-width="1"/>
<circle cx="259" cy="444" r="3" opacity="1" fill="none" stroke="#FF0000" stroke-width="1"/>
<circle cx="212" cy="442" r="3" opacity="1" fill="none" stroke="#FF0000" stroke-width="1"/>
<circle cx="244" cy="452" r="3" opacity="1" fill="none" stroke="#FF0000" stroke-width="1"/>
<circle cx="416" cy="459" r="3" opacity="1" fill="none" stroke="#FF0000" stroke-width="1"/>
<circle cx="340" cy="457" r="3" opacity="1" fill="none" stroke="#FF0000" stroke-width="1"/>
<circle cx="299" cy="459" r="3" opacity="1" fill="none" stroke="#FF0000" stroke-width="1"/>
<circle cx="346" cy="468" r="3" opacity="1" fill="none" stroke="#FF0000" stroke-width="1"/>
<circle cx="310" cy="463" r="3" opacity="1" fill="none" stroke="#FF0000" stroke-width="1"/>
<circle cx="409" cy="460" r="3" opacity="1" fill="none" stroke="#FF0000" stroke-width="1"/>
<circle cx="250" cy="446" r="3" opacity="1" fill="none" stroke="#FF0000" stroke-width="1"/>
<circle cx="315" cy="462" r="3" opacity="1" fill="none" stroke="#FF0000" stroke-width="1"/>
<circle cx="243" cy="436" r="3" opacity="1" fill="none" stroke="#FF0000" stroke-width="1"/>
<circle cx="233" cy="449" r="3" opacity="1" fill="none" stroke="#FF0000" stroke-width="1"/>
<circle cx="427" cy="462" r="3" opacity="1" fill="none" stroke="#FF0000" stroke-width="1"/>
<circle cx="244" cy="443" r="3" opacity="1" fill="none" stroke="#FF0000" stroke-width="1"/>
<circle cx="328" cy="460" r="3" opacity="1" fill="none" stroke="#FF0000" stroke-width="1"/>
<circle cx="240" cy="450" r="3" opacity="1" fill="none" stroke="#FF0000" stroke-width="1"/>
<circle cx="275" cy="452" r="3" opacity="1" fill="none" stroke="#FF0000" stroke-width="1"/>
<circle cx="220" cy="450" r="3" opacity="1" fill="none" stroke="#FF0000" stroke-width="1"/>
<circle cx="299" cy="459" r="3" opacity="1" fill="none" stroke="#FF0000" stroke-width="1"/>
<circle cx="235" cy="447" r="3" opacity="1" fill="none" stroke="#FF0000" stroke-width="1"/>
<circle cx="229" cy="449" r="3" opacity="1" fill="none" stroke="#FF0000" stroke-width="1"/>
<circle cx="412" cy="446" r="3" opacity="1" fill="none" stroke="#FF0000" stroke-width="1"/>
<circle cx="423" cy="448" r="3" opacity="1" fill="none" stroke="#FF0000" stroke-width="1"/>
<circle cx="246" cy="447" r="3" opacity="1" fill="none" stroke="#FF0000" stroke-width="1"/>
<circle cx="171" cy="427" r="3" opacity="1" fill="none" stroke="#FF0000" stroke-width="1"/>
<circle cx="296" cy="458" r="3" opacity="1" fill="none" stroke="#FF0000" stroke-width="1"/>
<circle cx="174" cy="432" r="3" opacity="1" fill="none" stroke="#FF0000" stroke-width="1"/>
<circle cx="348" cy="458" r="3" opacity="1" fill="none" stroke="#FF0000" stroke-width="1"/>
<circle cx="283" cy="448" r="3" opacity="1" fill="none" stroke="#FF0000" stroke-width="1"/>
<circle cx="264" cy="456" r="3" opacity="1" fill="none" stroke="#FF0000" stroke-width="1"/>
<circle cx="353" cy="466" r="3" opacity="1" fill="none" stroke="#FF0000" stroke-width="1"/>
<circle cx="357" cy="466" r="3" opacity="1" fill="none" stroke="#FF0000" stroke-width="1"/>
<circle cx="230" cy="411" r="3" opacity="1" fill="none" stroke="#FF0000" stroke-width="1"/>
<circle cx="163" cy="429" r="3" opacity="1" fill="none" stroke="#FF0000" stroke-width="1"/>
<circle cx="340" cy="460" r="3" opacity="1" fill="none" stroke="#FF0000" stroke-width="1"/>
<circle cx="302" cy="449" r="3" opacity="1" fill="none" stroke="#FF0000" stroke-width="1"/>
<circle cx="245" cy="400" r="3" opacity="1" fill="none" stroke="#FF0000" stroke-width="1"/>
<circle cx="354" cy="459" r="3" opacity="1" fill="none" stroke="#FF0000" stroke-width="1"/>
<circle cx="219" cy="449" r="3" opacity="1" fill="none" stroke="#FF0000" stroke-width="1"/>
<circle cx="264" cy="455" r="3" opacity="1" fill="none" stroke="#FF0000" stroke-width="1"/>
<circle cx="271" cy="454" r="3" opacity="1" fill="none" stroke="#FF0000" stroke-width="1"/>
<circle cx="195" cy="440" r="3" opacity="1" fill="none" stroke="#FF0000" stroke-width="1"/>
<circle cx="331" cy="460" r="3" opacity="1" fill="none" stroke="#FF0000" stroke-width="1"/>
<circle cx="200" cy="431" r="3" opacity="1" fill="none" stroke="#FF0000" stroke-width="1"/>
<circle cx="210" cy="438" r="3" opacity="1" fill="none" stroke="#FF0000" stroke-width="1"/>
<circle cx="330" cy="461" r="3" opacity="1" fill="none" stroke="#FF0000" stroke-width="1"/>
<circle cx="220" cy="448" r="3" opacity="1" fill="none" stroke="#FF0000" stroke-width="1"/>
<circle cx="200" cy="437" r="3" opacity="1" fill="none" stroke="#FF0000" stroke-width="1"/>
</svg>
